<?xml version="1.0" encoding="utf-8"?>
<svg width="524" height="608" viewBox="0 0 524 608" xmlns="http://www.w3.org/2000/svg">
<rect id="frame" x="0" y="0" width="524" height="608" fill="#f7f7f7" stroke="none" stroke-width="0"/>

<!-- Association belongs -->
<g>
	<line x1="266" y1="296" x2="266" y2="161" stroke="#4393c3" stroke-width="2"/>
	<text x="271" y="203" fill="#b2182b" font-family="Verdana" font-size="12">0,N</text>
	<line x1="378" y1="161" x2="266" y2="161" stroke="#4393c3" stroke-width="2"/>
	<text x="319" y="178" fill="#b2182b" font-family="Verdana" font-size="12">0,N</text>
	<g>
		<path d="M283 136 a14 14 90 0 1 14 14 V161 h-62 V150 a14 14 90 0 1 14 -14" fill="#92c5de" stroke="#92c5de" stroke-width="0"/>
		<path d="M297 161 v11 a14 14 90 0 1 -14 14 H249 a14 14 90 0 1 -14 -14 V161 H62" fill="#d1e5f0" stroke="#d1e5f0" stroke-width="0"/>
		<rect x="235" y="136" width="62" height="50" fill="none" rx="14" stroke="#4393c3" stroke-width="2"/>
		<line x1="235" y1="161" x2="297" y2="161" stroke="#4393c3" stroke-width="1"/>
		<text x="242" y="153.75" fill="#000" font-family="Verdana" font-size="12">belongs</text>
	</g>
</g>

<!-- Association write -->
<g>
	<line x1="480" y1="60" x2="480" y2="161" stroke="#4393c3" stroke-width="2"/>
	<text x="485" y="128" fill="#b2182b" font-family="Verdana" font-size="12">0,N</text>
	<line x1="480" y1="296" x2="480" y2="161" stroke="#4393c3" stroke-width="2"/>
	<text x="485" y="237" fill="#b2182b" font-family="Verdana" font-size="12">1,1</text>
	<g>
		<path d="M489 136 a14 14 90 0 1 14 14 V161 h-46 V150 a14 14 90 0 1 14 -14" fill="#92c5de" stroke="#92c5de" stroke-width="0"/>
		<path d="M503 161 v11 a14 14 90 0 1 -14 14 H471 a14 14 90 0 1 -14 -14 V161 H46" fill="#d1e5f0" stroke="#d1e5f0" stroke-width="0"/>
		<rect x="457" y="136" width="46" height="50" fill="none" rx="14" stroke="#4393c3" stroke-width="2"/>
		<line x1="457" y1="161" x2="503" y2="161" stroke="#4393c3" stroke-width="1"/>
		<text x="465" y="153.75" fill="#000" font-family="Verdana" font-size="12">write</text>
	</g>
</g>

<!-- Association has -->
<g>
	<line x1="266" y1="296" x2="171" y2="296" stroke="#4393c3" stroke-width="2"/>
	<text x="194" y="313" fill="#b2182b" font-family="Verdana" font-size="12">0,N</text>
	<line x1="65" y1="296" x2="171" y2="296" stroke="#4393c3" stroke-width="2"/>
	<text x="126" y="313" fill="#b2182b" font-family="Verdana" font-size="12">1,1</text>
	<g>
		<path d="M175 271 a14 14 90 0 1 14 14 V296 h-36 V285 a14 14 90 0 1 14 -14" fill="#92c5de" stroke="#92c5de" stroke-width="0"/>
		<path d="M189 296 v11 a14 14 90 0 1 -14 14 H167 a14 14 90 0 1 -14 -14 V296 H36" fill="#d1e5f0" stroke="#d1e5f0" stroke-width="0"/>
		<rect x="153" y="271" width="36" height="50" fill="none" rx="14" stroke="#4393c3" stroke-width="2"/>
		<line x1="153" y1="296" x2="189" y2="296" stroke="#4393c3" stroke-width="1"/>
		<text x="160" y="288.75" fill="#000" font-family="Verdana" font-size="12">has</text>
	</g>
</g>

<!-- Association reviewed -->
<g>
	<line x1="266" y1="296" x2="378" y2="296" stroke="#4393c3" stroke-width="2"/>
	<text x="316" y="313" fill="#b2182b" font-family="Verdana" font-size="12">0,N</text>
	<line x1="480" y1="296" x2="378" y2="296" stroke="#4393c3" stroke-width="2"/>
	<text x="419" y="313" fill="#b2182b" font-family="Verdana" font-size="12">1,1</text>
	<g>
		<path d="M399 271 a14 14 90 0 1 14 14 V296 h-70 V285 a14 14 90 0 1 14 -14" fill="#92c5de" stroke="#92c5de" stroke-width="0"/>
		<path d="M413 296 v11 a14 14 90 0 1 -14 14 H357 a14 14 90 0 1 -14 -14 V296 H70" fill="#d1e5f0" stroke="#d1e5f0" stroke-width="0"/>
		<rect x="343" y="271" width="70" height="50" fill="none" rx="14" stroke="#4393c3" stroke-width="2"/>
		<line x1="343" y1="296" x2="413" y2="296" stroke="#4393c3" stroke-width="1"/>
		<text x="351" y="288.75" fill="#000" font-family="Verdana" font-size="12">reviewed</text>
	</g>
</g>

<!-- Association plays -->
<g>
	<line x1="266" y1="296" x2="266" y2="448" stroke="#4393c3" stroke-width="2"/>
	<text x="271" y="398" fill="#b2182b" font-family="Verdana" font-size="12">0,N</text>
	<line x1="378" y1="448" x2="266" y2="448" stroke="#4393c3" stroke-width="2"/>
	<text x="309" y="465" fill="#b2182b" font-family="Verdana" font-size="12">1,1</text>
	<g>
		<path d="M275 423 a14 14 90 0 1 14 14 V448 h-46 V437 a14 14 90 0 1 14 -14" fill="#92c5de" stroke="#92c5de" stroke-width="0"/>
		<path d="M289 448 v11 a14 14 90 0 1 -14 14 H257 a14 14 90 0 1 -14 -14 V448 H46" fill="#d1e5f0" stroke="#d1e5f0" stroke-width="0"/>
		<rect x="243" y="423" width="46" height="50" fill="none" rx="14" stroke="#4393c3" stroke-width="2"/>
		<line x1="243" y1="448" x2="289" y2="448" stroke="#4393c3" stroke-width="1"/>
		<text x="250" y="440.75" fill="#000" font-family="Verdana" font-size="12">plays</text>
	</g>
</g>

<!-- Association is -->
<g>
	<line x1="480" y1="557" x2="480" y2="448" stroke="#4393c3" stroke-width="2"/>
	<text x="485" y="507" fill="#b2182b" font-family="Verdana" font-size="12">0,N</text>
	<line x1="378" y1="448" x2="480" y2="448" stroke="#4393c3" stroke-width="2"/>
	<text x="426" y="465" fill="#b2182b" font-family="Verdana" font-size="12">1,1</text>
	<g>
		<path d="M479 423 a14 14 90 0 1 14 14 V448 h-26 V437 a14 14 90 0 1 14 -14" fill="#92c5de" stroke="#92c5de" stroke-width="0"/>
		<path d="M493 448 v11 a14 14 90 0 1 -14 14 H481 a14 14 90 0 1 -14 -14 V448 H26" fill="#d1e5f0" stroke="#d1e5f0" stroke-width="0"/>
		<rect x="467" y="423" width="26" height="50" fill="none" rx="14" stroke="#4393c3" stroke-width="2"/>
		<line x1="467" y1="448" x2="493" y2="448" stroke="#4393c3" stroke-width="1"/>
		<text x="475" y="440.75" fill="#000" font-family="Verdana" font-size="12">is</text>
	</g>
</g>

<!-- Entity user -->
<g>
	<g>
		<rect x="446" y="9" width="68" height="25" fill="#f4a582" stroke="#f4a582" stroke-width="0" opacity="1"/>
		<rect x="446" y="34" width="68" height="77" fill="#fddbc7" stroke="#fddbc7" stroke-width="0" opacity="1"/>
		<rect x="446" y="9" width="68" height="102" fill="none" stroke="#d6604d" stroke-width="2" opacity="1"/>
		<line x1="446" y1="34" x2="514" y2="34" stroke="#d6604d" stroke-width="1"/>
	</g>
	<text x="467" y="26.75" fill="#000" font-family="Verdana" font-size="12">user</text>
	<text x="451" y="51.8" fill="#000" font-family="Verdana" font-size="12">id_user</text>
	<line x1="451" y1="54" x2="497" y2="54" stroke="#000" stroke-width="1"/>
	<text x="451" y="68.8" fill="#000" font-family="Verdana" font-size="12">pseudo</text>
	<text x="451" y="85.8" fill="#000" font-family="Verdana" font-size="12">password</text>
	<text x="451" y="102.8" fill="#000" font-family="Verdana" font-size="12">role</text>
</g>

<!-- Entity genre -->
<g>
	<g>
		<rect x="346" y="127" width="64" height="25" fill="#f4a582" stroke="#f4a582" stroke-width="0" opacity="1"/>
		<rect x="346" y="152" width="64" height="43" fill="#fddbc7" stroke="#fddbc7" stroke-width="0" opacity="1"/>
		<rect x="346" y="127" width="64" height="68" fill="none" stroke="#d6604d" stroke-width="2" opacity="1"/>
		<line x1="346" y1="152" x2="410" y2="152" stroke="#d6604d" stroke-width="1"/>
	</g>
	<text x="360" y="144.75" fill="#000" font-family="Verdana" font-size="12">genre</text>
	<text x="351" y="169.8" fill="#000" font-family="Verdana" font-size="12">id_genre</text>
	<line x1="351" y1="172" x2="405" y2="172" stroke="#000" stroke-width="1"/>
	<text x="351" y="186.8" fill="#000" font-family="Verdana" font-size="12">name</text>
</g>

<!-- Entity season -->
<g>
	<g>
		<rect x="9" y="254" width="112" height="25" fill="#f4a582" stroke="#f4a582" stroke-width="0" opacity="1"/>
		<rect x="9" y="279" width="112" height="59" fill="#fddbc7" stroke="#fddbc7" stroke-width="0" opacity="1"/>
		<rect x="9" y="254" width="112" height="84" fill="none" stroke="#d6604d" stroke-width="2" opacity="1"/>
		<line x1="9" y1="279" x2="121" y2="279" stroke="#d6604d" stroke-width="1"/>
	</g>
	<text x="44" y="271.75" fill="#000" font-family="Verdana" font-size="12">season</text>
	<text x="14" y="296.8" fill="#000" font-family="Verdana" font-size="12">season_id</text>
	<line x1="14" y1="299" x2="75" y2="299" stroke="#000" stroke-width="1"/>
	<text x="14" y="313.8" fill="#000" font-family="Verdana" font-size="12">number_episode</text>
	<text x="14" y="330.8" fill="#000" font-family="Verdana" font-size="12">number_season</text>
</g>

<!-- Entity movie -->
<g>
	<g>
		<rect x="221" y="211" width="90" height="25" fill="#f4a582" stroke="#f4a582" stroke-width="0" opacity="1"/>
		<rect x="221" y="236" width="90" height="145" fill="#fddbc7" stroke="#fddbc7" stroke-width="0" opacity="1"/>
		<rect x="221" y="211" width="90" height="170" fill="none" stroke="#d6604d" stroke-width="2" opacity="1"/>
		<line x1="221" y1="236" x2="311" y2="236" stroke="#d6604d" stroke-width="1"/>
	</g>
	<text x="247" y="228.75" fill="#000" font-family="Verdana" font-size="12">movie</text>
	<text x="226" y="253.8" fill="#000" font-family="Verdana" font-size="12">id_movie</text>
	<line x1="226" y1="256" x2="282" y2="256" stroke="#000" stroke-width="1"/>
	<text x="226" y="270.8" fill="#000" font-family="Verdana" font-size="12">title</text>
	<text x="226" y="287.8" fill="#000" font-family="Verdana" font-size="12">duration</text>
	<text x="226" y="304.8" fill="#000" font-family="Verdana" font-size="12">release_date</text>
	<text x="226" y="321.8" fill="#000" font-family="Verdana" font-size="12">synopsis</text>
	<text x="226" y="338.8" fill="#000" font-family="Verdana" font-size="12">summary</text>
	<text x="226" y="355.8" fill="#000" font-family="Verdana" font-size="12">poster</text>
	<text x="226" y="372.8" fill="#000" font-family="Verdana" font-size="12">type</text>
</g>

<!-- Entity review -->
<g>
	<g>
		<rect x="445" y="245" width="70" height="25" fill="#f4a582" stroke="#f4a582" stroke-width="0" opacity="1"/>
		<rect x="445" y="270" width="70" height="77" fill="#fddbc7" stroke="#fddbc7" stroke-width="0" opacity="1"/>
		<rect x="445" y="245" width="70" height="102" fill="none" stroke="#d6604d" stroke-width="2" opacity="1"/>
		<line x1="445" y1="270" x2="515" y2="270" stroke="#d6604d" stroke-width="1"/>
	</g>
	<text x="460" y="262.75" fill="#000" font-family="Verdana" font-size="12">review</text>
	<text x="450" y="287.8" fill="#000" font-family="Verdana" font-size="12">id_review</text>
	<line x1="450" y1="290" x2="509" y2="290" stroke="#000" stroke-width="1"/>
	<text x="450" y="304.8" fill="#000" font-family="Verdana" font-size="12">content</text>
	<text x="450" y="321.8" fill="#000" font-family="Verdana" font-size="12">rating</text>
	<text x="450" y="338.8" fill="#000" font-family="Verdana" font-size="12">date</text>
</g>

<!-- Entity casting -->
<g>
	<g>
		<rect x="335" y="406" width="86" height="25" fill="#f4a582" stroke="#f4a582" stroke-width="0" opacity="1"/>
		<rect x="335" y="431" width="86" height="59" fill="#fddbc7" stroke="#fddbc7" stroke-width="0" opacity="1"/>
		<rect x="335" y="406" width="86" height="84" fill="none" stroke="#d6604d" stroke-width="2" opacity="1"/>
		<line x1="335" y1="431" x2="421" y2="431" stroke="#d6604d" stroke-width="1"/>
	</g>
	<text x="356" y="423.75" fill="#000" font-family="Verdana" font-size="12">casting</text>
	<text x="340" y="448.8" fill="#000" font-family="Verdana" font-size="12">id_casting</text>
	<line x1="340" y1="451" x2="402" y2="451" stroke="#000" stroke-width="1"/>
	<text x="340" y="465.8" fill="#000" font-family="Verdana" font-size="12">credit_order</text>
	<text x="340" y="482.8" fill="#000" font-family="Verdana" font-size="12">role</text>
</g>

<!-- Entity actor -->
<g>
	<g>
		<rect x="448" y="515" width="64" height="25" fill="#f4a582" stroke="#f4a582" stroke-width="0" opacity="1"/>
		<rect x="448" y="540" width="64" height="59" fill="#fddbc7" stroke="#fddbc7" stroke-width="0" opacity="1"/>
		<rect x="448" y="515" width="64" height="84" fill="none" stroke="#d6604d" stroke-width="2" opacity="1"/>
		<line x1="448" y1="540" x2="512" y2="540" stroke="#d6604d" stroke-width="1"/>
	</g>
	<text x="464" y="532.75" fill="#000" font-family="Verdana" font-size="12">actor</text>
	<text x="453" y="557.8" fill="#000" font-family="Verdana" font-size="12">id_actor</text>
	<line x1="453" y1="560" x2="503" y2="560" stroke="#000" stroke-width="1"/>
	<text x="453" y="574.8" fill="#000" font-family="Verdana" font-size="12">name</text>
	<text x="453" y="591.8" fill="#000" font-family="Verdana" font-size="12">surname</text>
</g>
</svg>